<svg xmlns="http://www.w3.org/2000/svg" viewBox="0 0 512 512" width="512" height="512">
  <rect width="512" height="512" fill="#211f1d"/>
  <g transform="translate(56 56) scale(0.7813)">
    

  <defs>
    <linearGradient id="bg" x1="0" y1="0" x2="0" y2="1">
      <stop offset="0" stop-color="#33312d"/>
      <stop offset="1" stop-color="#211f1d"/>
    </linearGradient>
    <radialGradient id="core" cx="0.5" cy="0.42" r="0.62">
      <stop offset="0" stop-color="#3d3a35"/>
      <stop offset="1" stop-color="#211f1d"/>
    </radialGradient>
    <!-- Hue-independent shading so the gear looks dimensional for any accent. -->
    <linearGradient id="shade" x1="0.2" y1="0" x2="0.8" y2="1">
      <stop offset="0" stop-color="#ffffff" stop-opacity="0.22"/>
      <stop offset="0.5" stop-color="#ffffff" stop-opacity="0"/>
      <stop offset="1" stop-color="#000000" stop-opacity="0.24"/>
    </linearGradient>
    <filter id="soft" x="-20%" y="-20%" width="140%" height="140%">
      <feDropShadow dx="0" dy="6" stdDeviation="8" flood-color="#000" flood-opacity="0.35"/>
    </filter>
  </defs>
  
  <g filter="url(#soft)">
    <path d="M449.48 224.66L449.48 287.34L408.47 297.43L399.43 322.27L424.36 356.36L384.07 404.37L346.17 385.74L323.27 398.96L320.46 441.10L258.74 451.98L241.68 413.35L215.64 408.76L186.40 439.23L132.12 407.89L143.89 367.33L126.89 347.08L84.91 351.62L63.47 292.73L98.55 269.22L98.55 242.78L63.47 219.27L84.91 160.38L126.89 164.92L143.89 144.67L132.12 104.11L186.40 72.77L215.64 103.24L241.68 98.65L258.74 60.02L320.46 70.90L323.27 113.04L346.17 126.26L384.07 107.63L424.36 155.64L399.43 189.73L408.47 214.57Z" fill="var(--accent, #da8216)"/>
    <path d="M449.48 224.66L449.48 287.34L408.47 297.43L399.43 322.27L424.36 356.36L384.07 404.37L346.17 385.74L323.27 398.96L320.46 441.10L258.74 451.98L241.68 413.35L215.64 408.76L186.40 439.23L132.12 407.89L143.89 367.33L126.89 347.08L84.91 351.62L63.47 292.73L98.55 269.22L98.55 242.78L63.47 219.27L84.91 160.38L126.89 164.92L143.89 144.67L132.12 104.11L186.40 72.77L215.64 103.24L241.68 98.65L258.74 60.02L320.46 70.90L323.27 113.04L346.17 126.26L384.07 107.63L424.36 155.64L399.43 189.73L408.47 214.57Z" fill="url(#shade)"/>
  </g>
  <circle cx="256" cy="256" r="96" fill="#211f1d"/>
  <circle cx="256" cy="256" r="96" fill="none" stroke="#000000" stroke-opacity="0.28" stroke-width="6"/>

  </g>
</svg>
